<svg width="39" height="40" viewBox="0 0 39 40" fill="none" xmlns="http://www.w3.org/2000/svg">
<rect width="38.542" height="39.4608" rx="19.271" fill="white"/>
<path d="M28.8831 12.7334C29.274 12.7571 29.5523 12.7571 29.8247 12.7986C31.4948 13.0473 32.6259 14.4627 32.5371 16.1623C32.4542 17.7376 31.1395 19.0405 29.4872 19.0819C28.9127 19.0997 28.7292 19.2714 28.5811 19.8104C28.2968 20.829 27.8705 21.8002 27.5151 22.7655C28.2435 23.2629 29.0963 23.7189 29.7951 24.3467C31.323 25.7325 31.2461 27.3433 29.6648 28.6639C28.439 29.6884 26.9644 30.2333 25.4661 30.707C22.0668 31.7849 18.555 32.3297 15.0432 32.8745C13.8351 33.064 12.6329 33.2535 11.3418 33.4608C11.3418 32.6732 11.3241 31.9211 11.3478 31.163C11.3596 30.7959 11.2352 30.6419 10.8858 30.5294C10.1989 30.3103 9.52376 30.0438 8.86641 29.7595C8.4637 29.5818 8.07877 29.3568 7.71159 29.114C5.44935 27.5683 5.42566 25.4304 7.66422 23.8492C8.23274 23.4465 8.86641 23.1445 9.51192 22.7655C8.1143 20.5921 7.88926 18.1581 7.96625 15.653C8.00178 14.5515 8.00178 13.4441 7.96625 12.3426C7.93663 11.3477 8.33934 10.5956 9.09737 10.0093C10.2285 9.1328 11.5432 8.6531 12.8934 8.24448C16.4349 7.16073 20.0888 6.74026 23.7072 6.13029C23.9263 6.09475 24.1395 6.0533 24.4593 6C24.4593 6.66328 24.4771 7.29102 24.4534 7.91876C24.4356 8.26225 24.56 8.39845 24.8798 8.51097C25.5608 8.74786 26.2419 9.00251 26.8815 9.33415C28.2199 10.027 29.1437 11.016 28.8891 12.7275L28.8831 12.7334ZM23.2927 7.43907C23.1268 7.43907 23.0262 7.42131 22.9314 7.43907C19.8519 8.00167 16.7547 8.48729 13.7048 9.17425C12.4019 9.47036 11.1287 10.0685 9.95607 10.7377C8.8368 11.3773 8.85456 12.4255 9.93239 13.148C10.6549 13.6336 11.4662 14.0481 12.2953 14.3028C16.0914 15.4635 19.9348 15.4458 23.7783 14.5693C24.9923 14.291 26.1708 13.8586 27.142 13.0236C27.9534 12.3307 27.9415 11.5845 27.1361 10.8917C26.9407 10.7199 26.7275 10.5482 26.4965 10.4475C25.5904 10.0744 24.6844 9.70132 23.7546 9.38745C23.4052 9.269 23.2631 9.1328 23.2867 8.76562C23.3164 8.33331 23.2927 7.89507 23.2927 7.42723V7.43907ZM12.5203 32.0514C12.7454 32.0395 12.8875 32.0395 13.0237 32.0158C15.4222 31.625 17.8206 31.2578 20.2132 30.8255C22.6057 30.3932 24.9864 29.8839 27.219 28.889C27.8527 28.6047 28.4804 28.2434 29.0075 27.7993C30.0083 26.9643 29.9787 25.9042 28.9601 25.0929C28.4331 24.6724 27.7994 24.3822 27.2249 24.021C26.8637 23.7959 26.6327 23.8433 26.3248 24.1927C22.3451 28.7587 15.4696 29.0192 11.1346 24.7909C10.4042 24.0763 9.59088 23.9933 8.69466 24.5421C8.69466 24.5421 8.65913 24.5599 8.64137 24.5717C6.71076 25.7798 6.67523 27.1775 8.65321 28.2967C9.65405 28.8653 10.7733 29.2384 11.8748 29.5878C12.4078 29.7536 12.5796 29.9609 12.5263 30.4879C12.4789 30.9854 12.5144 31.4828 12.5144 32.0514H12.5203ZM28.9542 13.9593V17.9153C29.8484 18.016 30.5709 17.7613 31.0565 17.0151C31.5007 16.3341 31.5244 15.6116 31.1039 14.9128C30.6302 14.1192 29.8958 13.8468 28.9542 13.9593Z" fill="#7C310B"/>
<path d="M18.3714 12.5499C17.9865 12.5025 17.5601 12.4136 17.5068 11.8747C17.4712 11.5076 17.9746 11.1759 18.5017 11.2174C18.9221 11.247 19.3189 11.3654 19.3841 11.8629C19.4314 12.2419 18.9636 12.5617 18.3714 12.5499Z" fill="#7C310B"/>
<path d="M14.4095 12.5499C13.8824 12.538 13.456 12.236 13.5034 11.8688C13.5745 11.3358 14.0068 11.2174 14.445 11.2174C14.8833 11.2174 15.3097 11.3417 15.3866 11.8688C15.4399 12.2419 14.9603 12.5558 14.4154 12.5439L14.4095 12.5499Z" fill="#7C310B"/>
<path d="M22.4932 12.5558C22.0431 12.5143 21.6108 12.4492 21.522 11.9162C21.4627 11.5313 21.9187 11.1878 22.4636 11.2115C22.9018 11.2292 23.3696 11.3417 23.3815 11.8747C23.3933 12.4196 22.9077 12.4906 22.4932 12.5558Z" fill="#7C310B"/>
</svg>
