<svg width="29" height="29" viewBox="0 0 29 29" fill="none" xmlns="http://www.w3.org/2000/svg">
<path d="M24.3411 7.2725C24.732 7.29619 25.0103 7.29619 25.2828 7.33764C26.9528 7.58637 28.0839 9.00176 27.9951 10.7014C27.9122 12.2767 26.5975 13.5795 24.9452 13.621C24.3707 13.6388 24.1872 13.8105 24.0391 14.3494C23.7549 15.368 23.3285 16.3392 22.9731 17.3046C23.7016 17.802 24.5543 18.258 25.2531 18.8858C26.781 20.2715 26.7041 21.8823 25.1229 23.203C23.897 24.2275 22.4224 24.7723 20.9241 25.2461C17.5248 26.3239 14.013 26.8688 10.5012 27.4136C9.29306 27.6031 8.09087 27.7926 6.79985 27.9999C6.79985 27.2122 6.78209 26.4601 6.80578 25.7021C6.81762 25.3349 6.69326 25.181 6.34385 25.0684C5.65689 24.8493 4.98177 24.5828 4.32441 24.2986C3.92171 24.1209 3.53677 23.8959 3.1696 23.6531C0.907357 22.1074 0.883668 19.9695 3.12223 18.3883C3.69075 17.9856 4.32441 17.6836 4.96992 17.3046C3.57231 15.1311 3.34727 12.6972 3.42425 10.1921C3.45979 9.09059 3.45979 7.98315 3.42425 6.88164C3.39464 5.88673 3.79735 5.13462 4.55538 4.54833C5.6865 3.67186 7.00121 3.19217 8.35145 2.78354C11.8929 1.6998 15.5468 1.27933 19.1652 0.669349C19.3843 0.633816 19.5975 0.592361 19.9173 0.539062C19.9173 1.20234 19.9351 1.83008 19.9114 2.45783C19.8936 2.80131 20.018 2.93752 20.3378 3.05004C21.0188 3.28692 21.6999 3.54157 22.3395 3.87321C23.6779 4.5661 24.6017 5.55509 24.3471 7.26658L24.3411 7.2725ZM18.7507 1.97813C18.5849 1.97813 18.4842 1.96037 18.3894 1.97813C15.3099 2.54074 12.2127 3.02635 9.16278 3.71331C7.85991 4.00942 6.58666 4.60755 5.41408 5.27675C4.2948 5.91634 4.31257 6.96455 5.39039 7.68705C6.11289 8.17266 6.92422 8.58721 7.75331 8.84186C11.5494 10.0026 15.3928 9.98483 19.2363 9.10835C20.4503 8.83002 21.6288 8.3977 22.6 7.56268C23.4114 6.8698 23.3995 6.12361 22.5941 5.43072C22.3987 5.25898 22.1855 5.08724 21.9545 4.98657C21.0484 4.61347 20.1424 4.24038 19.2126 3.92651C18.8632 3.80807 18.7211 3.67186 18.7447 3.30469C18.7744 2.87237 18.7507 2.43414 18.7507 1.96629V1.97813ZM7.97835 26.5904C8.20339 26.5786 8.34553 26.5786 8.48173 26.5549C10.8802 26.164 13.2786 25.7969 15.6712 25.3645C18.0637 24.9322 20.4444 24.4229 22.677 23.428C23.3107 23.1438 23.9384 22.7825 24.4655 22.3383C25.4663 21.5033 25.4367 20.4433 24.4181 19.6319C23.8911 19.2115 23.2574 18.9213 22.6829 18.56C22.3217 18.335 22.0907 18.3824 21.7828 18.7318C17.8031 23.2977 10.9276 23.5583 6.59258 19.3299C5.86219 18.6153 5.04888 18.5324 4.15267 19.0812C4.15267 19.0812 4.11714 19.099 4.09937 19.1108C2.16877 20.3189 2.13323 21.7165 4.11122 22.8358C5.11205 23.4043 6.23133 23.7774 7.33284 24.1268C7.86583 24.2926 8.03758 24.4999 7.98428 25.027C7.9369 25.5244 7.97243 26.0219 7.97243 26.5904H7.97835ZM24.4122 8.49838V12.4543C25.3064 12.555 26.0289 12.3004 26.5146 11.5542C26.9587 10.8731 26.9824 10.1506 26.5619 9.45184C26.0882 8.65827 25.3538 8.38586 24.4122 8.49838Z" fill="#FFFBEA"/>
<path d="M13.8294 7.08891C13.4445 7.04154 13.0181 6.9527 12.9648 6.41379C12.9292 6.04662 13.4326 5.71498 13.9597 5.75644C14.3802 5.78605 14.7769 5.90449 14.8421 6.40195C14.8895 6.78096 14.4216 7.10076 13.8294 7.08891Z" fill="#FFFBEA"/>
<path d="M9.86751 7.08891C9.34044 7.07707 8.91405 6.77504 8.96142 6.40787C9.03249 5.87488 9.4648 5.75644 9.90304 5.75644C10.3413 5.75644 10.7677 5.8808 10.8447 6.40787C10.898 6.78096 10.4183 7.09484 9.87343 7.08299L9.86751 7.08891Z" fill="#FFFBEA"/>
<path d="M17.9512 7.09484C17.5011 7.05338 17.0688 6.98824 16.98 6.45525C16.9207 6.07031 17.3767 5.72683 17.9216 5.75052C18.3598 5.76829 18.8277 5.88081 18.8395 6.4138C18.8513 6.95863 18.3657 7.0297 17.9512 7.09484Z" fill="#FFFBEA"/>
</svg>
