<svg width="141" height="28" viewBox="0 0 141 28" fill="none" xmlns="http://www.w3.org/2000/svg">
<path d="M22.8831 6.73344C23.274 6.75713 23.5523 6.75713 23.8247 6.79858C25.4948 7.04731 26.6259 8.46269 26.5371 10.1623C26.4542 11.7376 25.1395 13.0405 23.4872 13.0819C22.9127 13.0997 22.7292 13.2714 22.5811 13.8104C22.2968 14.829 21.8705 15.8002 21.5151 16.7655C22.2435 17.2629 23.0963 17.719 23.7951 18.3467C25.323 19.7325 25.2461 21.3433 23.6648 22.6639C22.439 23.6884 20.9644 24.2333 19.4661 24.707C16.0668 25.7849 12.555 26.3297 9.04316 26.8745C7.83505 27.064 6.63287 27.2535 5.34185 27.4608C5.34185 26.6732 5.32408 25.9211 5.34777 25.163C5.35961 24.7959 5.23525 24.6419 4.88584 24.5294C4.19888 24.3103 3.52376 24.0438 2.86641 23.7595C2.4637 23.5818 2.07877 23.3568 1.71159 23.114C-0.550651 21.5683 -0.574339 19.4304 1.66422 17.8492C2.23274 17.4465 2.86641 17.1445 3.51192 16.7655C2.1143 14.5921 1.88926 12.1581 1.96625 9.65304C2.00178 8.55153 2.00178 7.44409 1.96625 6.34258C1.93663 5.34766 2.33934 4.59556 3.09737 4.00927C4.22849 3.1328 5.5432 2.6531 6.89344 2.24448C10.4349 1.16073 14.0888 0.740264 17.7072 0.130286C17.9263 0.0947537 18.1395 0.053299 18.4593 0C18.4593 0.663276 18.4771 1.29102 18.4534 1.91876C18.4356 2.26225 18.56 2.39845 18.8798 2.51097C19.5608 2.74786 20.2419 3.00251 20.8815 3.33415C22.2199 4.02703 23.1437 5.01603 22.8891 6.72752L22.8831 6.73344ZM17.2927 1.43907C17.1268 1.43907 17.0262 1.42131 16.9314 1.43907C13.8519 2.00167 10.7547 2.48729 7.70477 3.17425C6.4019 3.47036 5.12865 4.06849 3.95607 4.73769C2.8368 5.37727 2.85456 6.42549 3.93239 7.14799C4.65488 7.6336 5.46621 8.04815 6.29531 8.3028C10.0914 9.46353 13.9348 9.44576 17.7783 8.56929C18.9923 8.29095 20.1708 7.85864 21.142 7.02362C21.9534 6.33073 21.9415 5.58455 21.1361 4.89166C20.9407 4.71992 20.7275 4.54818 20.4965 4.4475C19.5904 4.07441 18.6844 3.70132 17.7546 3.38745C17.4052 3.269 17.2631 3.1328 17.2867 2.76562C17.3164 2.33331 17.2927 1.89507 17.2927 1.42723V1.43907ZM6.52035 26.0514C6.74539 26.0395 6.88752 26.0395 7.02373 26.0158C9.42218 25.625 11.8206 25.2578 14.2132 24.8255C16.6057 24.3932 18.9864 23.8839 21.219 22.889C21.8527 22.6047 22.4804 22.2434 23.0075 21.7993C24.0083 20.9643 23.9787 19.9042 22.9601 19.0929C22.4331 18.6724 21.7994 18.3822 21.2249 18.021C20.8637 17.7959 20.6327 17.8433 20.3248 18.1927C16.3451 22.7587 9.46956 23.0192 5.13457 18.7909C4.40418 18.0763 3.59088 17.9933 2.69466 18.5421C2.69466 18.5421 2.65913 18.5599 2.64137 18.5717C0.710758 19.7798 0.675226 21.1775 2.65321 22.2967C3.65405 22.8653 4.77332 23.2384 5.87484 23.5878C6.40783 23.7536 6.57957 23.9609 6.52627 24.4879C6.47889 24.9854 6.51442 25.4828 6.51442 26.0514H6.52035ZM22.9542 7.95931V11.9153C23.8484 12.016 24.5709 11.7613 25.0565 11.0151C25.5007 10.3341 25.5244 9.61158 25.1039 8.91277C24.6302 8.11921 23.8958 7.84679 22.9542 7.95931Z" fill="#7C310B"/>
<path d="M12.3714 6.54985C11.9865 6.50247 11.5601 6.41364 11.5068 5.87473C11.4712 5.50756 11.9746 5.17592 12.5017 5.21738C12.9221 5.24699 13.3189 5.36543 13.3841 5.86289C13.4314 6.2419 12.9636 6.56169 12.3714 6.54985Z" fill="#7C310B"/>
<path d="M8.4095 6.54985C7.88243 6.53801 7.45604 6.23598 7.50341 5.86881C7.57448 5.33582 8.00679 5.21738 8.44503 5.21738C8.88327 5.21738 9.30966 5.34174 9.38665 5.86881C9.43994 6.2419 8.96025 6.55577 8.41542 6.54393L8.4095 6.54985Z" fill="#7C310B"/>
<path d="M16.4932 6.55578C16.0431 6.51432 15.6108 6.44918 15.522 5.91619C15.4627 5.53125 15.9187 5.18777 16.4636 5.21146C16.9018 5.22922 17.3696 5.34174 17.3815 5.87473C17.3933 6.41957 16.9077 6.49063 16.4932 6.55578Z" fill="#7C310B"/>
<path d="M83.4153 9.78955C84.6175 9.78955 85.6188 10.0496 86.4183 10.5767C87.2178 11.1037 87.8213 11.7797 88.2181 12.6147C88.6207 13.4497 88.8167 14.3497 88.8167 15.3149V16.2856H80.2034C80.2469 16.8192 80.3571 17.307 80.5316 17.7544C80.7684 18.3407 81.1298 18.8026 81.6273 19.1401C82.1247 19.4777 82.7587 19.6499 83.5345 19.6499C84.3101 19.6498 84.9434 19.4776 85.4407 19.1401C85.9382 18.8026 86.2403 18.4057 86.3528 17.9497H88.6097C88.4557 18.7076 88.1477 19.3715 87.6859 19.9399C87.224 20.5084 86.6375 20.9407 85.9329 21.2427C85.2282 21.5447 84.4278 21.6987 83.5276 21.6987L83.5403 21.687C82.5751 21.687 81.7335 21.5216 81.011 21.1899C80.2945 20.8583 79.7083 20.4193 79.2523 19.8745C78.7963 19.3297 78.4529 18.7137 78.2278 18.0327C78.0029 17.3518 77.8841 16.6467 77.8841 15.9302V15.5396C77.8841 14.8053 77.9969 14.1004 78.2278 13.4194C78.4529 12.7385 78.7963 12.1224 79.2523 11.5776C79.7082 11.0329 80.283 10.5947 80.9818 10.2749C81.6805 9.94927 82.4917 9.78958 83.4153 9.78955ZM95.6566 9.78955C96.8587 9.78955 97.86 10.0496 98.6595 10.5767C99.4589 11.1037 100.063 11.7798 100.459 12.6147C100.862 13.4497 101.058 14.3498 101.058 15.3149V16.2856H92.4446C92.4881 16.8192 92.5983 17.307 92.7728 17.7544C93.0097 18.3407 93.371 18.8026 93.8685 19.1401C94.3658 19.4776 94.9991 19.6499 95.7747 19.6499C96.5505 19.6499 97.1845 19.4777 97.6819 19.1401C98.1793 18.8026 98.4815 18.4057 98.5941 17.9497H100.85C100.696 18.7077 100.388 19.3714 99.9261 19.9399C99.4642 20.5084 98.8778 20.9407 98.1732 21.2427C97.4685 21.5446 96.6689 21.6987 95.7689 21.6987L95.7806 21.687C94.8155 21.687 93.9746 21.5215 93.2523 21.1899C92.5357 20.8583 91.9495 20.4193 91.4935 19.8745C91.0375 19.3297 90.6941 18.7137 90.4691 18.0327C90.2441 17.3517 90.1253 16.6467 90.1253 15.9302V15.5396C90.1253 14.8053 90.2381 14.1004 90.4691 13.4194C90.6941 12.7385 91.0375 12.1224 91.4935 11.5776C91.9494 11.0329 92.5243 10.5947 93.223 10.2749C93.9217 9.9493 94.7329 9.78955 95.6566 9.78955ZM41.4935 5.76221C42.8021 5.76226 44.0397 6.00523 45.0345 6.48486C46.0293 6.97047 46.8174 7.6398 47.4036 8.50439C47.9898 9.36895 48.339 10.3876 48.4515 11.5601H45.9466C45.8341 10.7843 45.5789 10.1388 45.1702 9.62354C44.7617 9.10845 44.247 8.71715 43.6194 8.45068C42.9918 8.19016 42.2809 8.0601 41.4993 8.06006C40.7176 8.06006 39.965 8.20249 39.3372 8.49268C38.7096 8.78285 38.1882 9.18559 37.7737 9.69482C37.3593 10.204 37.0455 10.802 36.8323 11.4829C36.6192 12.1638 36.5121 12.9159 36.512 13.7271C36.512 14.5383 36.6192 15.2316 36.8323 15.9126C37.0455 16.5936 37.3649 17.198 37.7972 17.7251C38.2236 18.2522 38.7631 18.6546 39.4026 18.9448C40.0422 19.235 40.7883 19.3774 41.6292 19.3774C42.8431 19.3774 43.8675 19.0751 44.6966 18.4771C45.5257 17.8789 46.0297 17.0142 46.2073 15.9009H48.7357C48.5994 16.9668 48.2379 17.9326 47.6575 18.8091C47.0773 19.6852 46.284 20.3838 45.2776 20.8989C44.2709 21.4141 43.0564 21.6753 41.6292 21.6753L41.6234 21.687C40.2436 21.687 39.0652 21.4498 38.0941 20.9702C37.1229 20.4965 36.3348 19.8631 35.7308 19.0874C35.1326 18.3057 34.6889 17.4642 34.4046 16.5581C34.1204 15.6521 33.9779 14.7818 33.9778 13.9409V13.4849C33.9778 12.561 34.1262 11.643 34.4105 10.731C34.7006 9.81901 35.1444 8.9898 35.7484 8.24365C36.3465 7.49747 37.1288 6.89887 38.0882 6.44287C39.0475 5.98702 40.1849 5.76221 41.4935 5.76221ZM55.9134 9.78369C56.8667 9.7837 57.7133 9.94354 58.4476 10.2573C59.1878 10.5771 59.816 11.0034 60.3431 11.5542C60.8701 12.099 61.267 12.7149 61.5335 13.4077C61.8059 14.1005 61.9358 14.8112 61.9359 15.5396V15.9546C61.9358 16.6888 61.8058 17.3938 61.5452 18.0747C61.2847 18.7556 60.8933 19.3709 60.3841 19.9038C59.8748 20.4427 59.2475 20.8759 58.5013 21.2017C57.7552 21.5273 56.8904 21.687 55.9134 21.687C54.9305 21.687 54.0716 21.5273 53.3255 21.2017C52.5793 20.8759 51.951 20.4427 51.4417 19.9038C50.9327 19.3651 50.5421 18.7554 50.2816 18.0747C50.021 17.3938 49.891 16.6829 49.8909 15.9546V15.5396C49.8909 14.8053 50.0268 14.0946 50.2933 13.4077C50.5598 12.7148 50.9568 12.099 51.472 11.5542C51.9871 11.0095 52.6205 10.5771 53.3665 10.2573C54.1127 9.93753 54.9599 9.78369 55.9134 9.78369ZM69.5755 7.87646H68.2073C67.7398 7.87651 67.3789 8.0068 67.1302 8.26709C66.8815 8.52766 66.7562 8.88921 66.7562 9.34521V10.3169H71.6722V9.75928C71.6723 8.50402 72.0156 7.57414 72.6966 6.97607C73.3776 6.3781 74.3783 6.07671 75.6868 6.07666H77.0726V8.00049H75.4144C74.9586 8.00056 74.6035 8.13159 74.3489 8.39209C74.0944 8.6526 73.9642 9.01345 73.9642 9.46924V10.3169H77.2689V12.1167H73.9642V21.314H71.6722V12.1167H66.7562V21.314H64.4651V12.1167H62.9964V10.3169H64.4651V9.63525C64.4652 8.37982 64.8027 7.45017 65.4778 6.85205C66.1529 6.25405 67.1534 5.95169 68.4798 5.95166H69.5755V7.87646ZM55.9193 11.8794C55.1731 11.8794 54.5334 12.0516 53.9944 12.3892C53.4556 12.7267 53.0414 13.1888 52.7513 13.769C52.4611 14.3493 52.3187 15.0065 52.3187 15.7349C52.3187 16.4632 52.4612 17.1028 52.7454 17.6831C53.0297 18.2634 53.438 18.7195 53.9769 19.063C54.5142 19.3995 55.1573 19.5707 55.9183 19.5718C56.6742 19.571 57.3239 19.3998 57.8616 19.063C58.4005 18.7254 58.8088 18.2634 59.0931 17.6831C59.3773 17.1028 59.5198 16.4573 59.5198 15.7349C59.5198 15.0125 59.3774 14.3493 59.0872 13.769C58.7971 13.1888 58.3829 12.7326 57.8441 12.3892C57.3052 12.0457 56.6654 11.8794 55.9193 11.8794ZM95.6507 11.8384C94.9637 11.8384 94.3296 12.0048 93.8499 12.3364C93.3647 12.668 93.0096 13.1236 92.7728 13.7036C92.6542 13.9941 92.5668 14.3102 92.5091 14.6519H98.6995C98.6437 14.2454 98.5452 13.8762 98.4046 13.5444C98.1678 12.9997 97.8243 12.5788 97.3685 12.2827C96.9125 11.9866 96.3376 11.8384 95.6507 11.8384ZM83.4095 11.8384C82.7226 11.8384 82.0893 12.0048 81.6097 12.3364C81.1242 12.668 80.7684 13.1234 80.5316 13.7036C80.413 13.9941 80.3256 14.3102 80.2679 14.6519H86.4583C86.4025 14.2454 86.304 13.8762 86.1634 13.5444C85.9265 12.9997 85.5832 12.5788 85.1273 12.2827C84.6713 11.9866 84.0964 11.8384 83.4095 11.8384Z" fill="#7C310B"/>
<path d="M131.278 11.8018C131.695 11.0637 132.242 10.5062 132.919 10.1416C133.612 9.76866 134.382 9.58496 135.24 9.58496C136.028 9.58499 136.744 9.72743 137.384 10.0176C138.023 10.3078 138.58 10.7103 139.042 11.2314C139.504 11.7526 139.859 12.3511 140.096 13.0439C140.338 13.7368 140.457 14.4769 140.457 15.2822V15.6963C140.457 16.4958 140.333 17.2427 140.084 17.9355C139.835 18.6283 139.474 19.2386 138.994 19.7656C138.52 20.2984 137.946 20.7126 137.289 21.0205C136.632 21.3284 135.885 21.4766 135.074 21.4766H135.068C134.156 21.4766 133.344 21.2757 132.634 20.8789C131.923 20.4821 131.366 19.8956 130.958 19.1377C130.893 19.0177 130.836 18.8926 130.78 18.7646V21.1035H128.855V5.98438H131.278V11.8018ZM125.77 21.0977H123.846V18.54C123.79 18.7528 123.725 18.9541 123.65 19.1436C123.354 19.8955 122.916 20.4637 122.347 20.8486C121.779 21.2336 121.05 21.4297 120.185 21.4297H120.085L120.073 21.4355C118.758 21.4355 117.751 21.0089 117.047 20.1621C116.342 19.3152 115.993 18.0594 115.993 16.4014V9.94043H118.415V16.7334C118.415 17.5091 118.628 18.1193 119.055 18.5635C119.481 19.0135 120.061 19.2383 120.796 19.2383C121.53 19.2383 122.152 19.0012 122.632 18.5215C123.105 18.0477 123.348 17.3905 123.348 16.5615V9.93457H125.77V21.0977ZM105.848 11.8779C106.132 11.1731 106.54 10.6239 107.08 10.2363C107.666 9.81591 108.406 9.60259 109.306 9.60254H109.407C110.716 9.60254 111.711 10.0464 112.381 10.9287C113.05 11.8111 113.388 13.085 113.388 14.7432V21.1035H110.965V14.3936C110.965 13.5941 110.734 12.96 110.272 12.498C109.81 12.0362 109.212 11.8057 108.483 11.8057C107.696 11.8058 107.062 12.066 106.577 12.5928C106.091 13.1198 105.854 13.8073 105.854 14.666V21.1094H103.432L103.427 21.1035V5.98438H105.848V11.8779ZM134.641 11.6582C134.032 11.6582 133.469 11.794 132.942 12.0723C132.415 12.3506 131.994 12.7475 131.68 13.2627C131.367 13.7778 131.207 14.4055 131.207 15.1396V16.0283C131.207 16.7331 131.366 17.3374 131.692 17.8408C132.018 18.3441 132.439 18.7287 132.966 18.9893C133.491 19.2492 134.047 19.3841 134.638 19.3848C135.312 19.3845 135.904 19.22 136.419 18.8887C136.928 18.5571 137.324 18.1008 137.608 17.5088C137.892 16.9225 138.035 16.2473 138.035 15.4893C138.035 14.7313 137.887 14.0441 137.602 13.4697C137.312 12.8955 136.915 12.4516 136.412 12.1318C135.909 11.8121 135.316 11.6582 134.641 11.6582Z" fill="#FE9900"/>
</svg>
