<svg width="40" height="40" viewBox="0 0 40 40" fill="none" xmlns="http://www.w3.org/2000/svg">
<rect x="0.5" y="0.5" width="39" height="39" rx="19.5" fill="#FFFBEA"/>
<rect x="0.5" y="0.5" width="39" height="39" rx="19.5" stroke="#7C310B"/>
<path d="M10.062 20.3479C9.97868 20.1234 9.97868 19.8764 10.062 19.6519C10.8737 17.6837 12.2515 16.0009 14.0208 14.8168C15.79 13.6326 17.8711 13.0005 20 13.0005C22.129 13.0005 24.21 13.6326 25.9792 14.8168C27.7485 16.0009 29.1263 17.6837 29.938 19.6519C30.0214 19.8764 30.0214 20.1234 29.938 20.3479C29.1263 22.316 27.7485 23.9988 25.9792 25.183C24.21 26.3671 22.129 26.9993 20 26.9993C17.8711 26.9993 15.79 26.3671 14.0208 25.183C12.2515 23.9988 10.8737 22.316 10.062 20.3479Z" stroke="#7C310B" stroke-width="1.5" stroke-linecap="round" stroke-linejoin="round"/>
<path d="M20 23C21.6569 23 23 21.6569 23 20C23 18.3431 21.6569 17 20 17C18.3431 17 17 18.3431 17 20C17 21.6569 18.3431 23 20 23Z" stroke="#7C310B" stroke-width="1.5" stroke-linecap="round" stroke-linejoin="round"/>
</svg>
