<svg width="167" height="21" viewBox="0 0 167 21" fill="none" xmlns="http://www.w3.org/2000/svg">
<path d="M15.9991 6.18416C15.3991 6.44954 14.7658 6.6154 14.0992 6.71492C14.7658 6.31685 15.2991 5.68657 15.5325 4.92361C14.8992 5.28851 14.1992 5.55389 13.4326 5.71975C12.8326 5.08947 11.966 4.69141 11.0327 4.69141C9.23282 4.69141 7.76623 6.15099 7.76623 7.94229C7.76623 8.20767 7.79957 8.43987 7.86623 8.67208C5.16638 8.53939 2.73318 7.24567 1.09994 5.25534C0.833287 5.75292 0.666629 6.28368 0.666629 6.88078C0.666629 8.00864 1.23326 9.0038 2.13321 9.6009C1.59991 9.56773 1.09994 9.43504 0.633298 9.20284V9.23601C0.633298 10.8283 1.76657 12.1552 3.26648 12.4537C2.99983 12.5201 2.69985 12.5532 2.39987 12.5532C2.19988 12.5532 1.96656 12.5201 1.76657 12.4869C2.19988 13.7806 3.39981 14.7426 4.83306 14.7426C3.69979 15.6051 2.29987 16.1358 0.766624 16.1358C0.499972 16.1358 0.23332 16.1358 0 16.1027C1.46658 17.0315 3.16649 17.5623 5.03305 17.5623C11.066 17.5623 14.3659 12.5864 14.3659 8.27401C14.3659 8.14132 14.3659 7.97546 14.3659 7.84277C14.9992 7.41153 15.5658 6.84761 15.9991 6.18416Z" fill="#7C310B"/>
<path d="M53.0131 19.4663V11.5525H50.3372V8.4684H53.0131V6.19394C53.0131 3.55444 54.6329 2.11719 56.9988 2.11719C58.1321 2.11719 59.1061 2.20116 59.39 2.23869V4.99712L57.7491 4.99786C56.4624 4.99786 56.2132 5.60637 56.2132 6.49931V8.4684H59.2819L58.8824 11.5525H56.2132V19.4663H53.0131Z" fill="#7C310B"/>
<path d="M103.427 2.56948C106.017 2.56948 106.324 2.57913 107.347 2.62556C107.962 2.63305 108.571 2.74546 109.148 2.9579C109.566 3.11849 109.946 3.36448 110.263 3.68005C110.581 3.99562 110.828 4.37377 110.989 4.79016C111.203 5.36435 111.315 5.97071 111.323 6.58289C111.369 7.60106 111.379 7.90629 111.379 10.4837C111.379 13.0611 111.37 13.3663 111.323 14.3845C111.315 14.9966 111.203 15.603 110.989 16.1772C110.828 16.5936 110.581 16.9717 110.263 17.2873C109.946 17.6029 109.566 17.8489 109.148 18.0094C108.571 18.2219 107.962 18.3343 107.347 18.3418C106.324 18.3878 106.017 18.3979 103.427 18.3979C100.837 18.3979 100.53 18.3882 99.5077 18.3418C98.8926 18.3343 98.2833 18.2219 97.7063 18.0094C97.288 17.8489 96.908 17.6029 96.5909 17.2873C96.2738 16.9717 96.0267 16.5936 95.8653 16.1772C95.6518 15.603 95.5389 14.9966 95.5314 14.3845C95.4852 13.3663 95.475 13.0611 95.475 10.4837C95.475 7.90629 95.4847 7.60106 95.5314 6.58289C95.5389 5.97071 95.6518 5.36435 95.8653 4.79016C96.0267 4.37377 96.2738 3.99562 96.5909 3.68005C96.908 3.36448 97.288 3.11849 97.7063 2.9579C98.2833 2.74546 98.8926 2.63305 99.5077 2.62556C100.531 2.57959 100.837 2.56948 103.427 2.56948ZM103.427 0.830078C100.794 0.830078 100.463 0.84111 99.4282 0.887997C98.6232 0.903933 97.8267 1.05563 97.0726 1.33664C96.4258 1.57919 95.8399 1.95929 95.3558 2.45043C94.8619 2.93234 94.4797 3.51576 94.2358 4.15995C93.9534 4.91041 93.801 5.70309 93.785 6.50428C93.7388 7.53303 93.7277 7.86308 93.7277 10.4832C93.7277 13.1033 93.7388 13.4334 93.7859 14.4631C93.8019 15.2643 93.9544 16.0569 94.2367 16.8074C94.4803 17.4515 94.8622 18.0349 95.3558 18.5169C95.8402 19.0082 96.4264 19.3883 97.0736 19.6307C97.8276 19.9117 98.6241 20.0634 99.4292 20.0793C100.464 20.1253 100.794 20.1373 103.428 20.1373C106.062 20.1373 106.392 20.1262 107.427 20.0793C108.232 20.0634 109.029 19.9117 109.783 19.6307C110.427 19.3822 111.012 19.0027 111.5 18.5164C111.988 18.0301 112.369 17.4477 112.619 16.8065C112.901 16.056 113.053 15.2633 113.069 14.4621C113.116 13.4334 113.127 13.1033 113.127 10.4832C113.127 7.86308 113.116 7.53303 113.068 6.50336C113.052 5.70218 112.9 4.90949 112.618 4.15903C112.374 3.51493 111.992 2.93151 111.499 2.44951C111.014 1.95826 110.428 1.57815 109.781 1.33572C109.027 1.05471 108.23 0.903014 107.425 0.887078C106.392 0.84111 106.06 0.830078 103.427 0.830078Z" fill="#7C310B"/>
<path d="M103.425 5.52637C102.44 5.52637 101.477 5.8171 100.658 6.36179C99.8391 6.90649 99.2007 7.68068 98.8237 8.58648C98.4467 9.49227 98.348 10.489 98.5402 11.4506C98.7324 12.4122 99.2068 13.2954 99.9034 13.9887C100.6 14.682 101.487 15.1541 102.454 15.3453C103.42 15.5366 104.421 15.4385 105.332 15.0633C106.242 14.6881 107.02 14.0527 107.567 13.2375C108.114 12.4223 108.406 11.4639 108.406 10.4835C108.406 9.16877 107.882 7.90791 106.947 6.97827C106.013 6.04863 104.746 5.52637 103.425 5.52637ZM103.425 13.7012C102.786 13.7012 102.161 13.5125 101.629 13.1589C101.097 12.8053 100.683 12.3028 100.438 11.7148C100.194 11.1269 100.13 10.4799 100.254 9.85574C100.379 9.23156 100.687 8.65822 101.139 8.20822C101.591 7.75821 102.167 7.45175 102.795 7.3276C103.422 7.20344 104.072 7.26716 104.663 7.5107C105.253 7.75424 105.758 8.16667 106.114 8.69582C106.469 9.22497 106.659 9.84708 106.659 10.4835C106.659 11.3369 106.318 12.1553 105.712 12.7587C105.105 13.3622 104.283 13.7012 103.425 13.7012Z" fill="#7C310B"/>
<path d="M108.604 6.48863C109.247 6.48863 109.768 5.97 109.768 5.33025C109.768 4.6905 109.247 4.17188 108.604 4.17188C107.961 4.17188 107.44 4.6905 107.44 5.33025C107.44 5.97 107.961 6.48863 108.604 6.48863Z" fill="#7C310B"/>
<path fill-rule="evenodd" clip-rule="evenodd" d="M156.742 0.830078C151.601 0.830078 147.464 4.9468 147.464 10.0638C147.464 14.1421 150.132 17.6048 153.804 18.8359C154.268 18.9129 154.423 18.6436 154.423 18.3742C154.423 18.1434 154.423 17.5663 154.423 16.7968C151.833 17.3739 151.291 15.5656 151.291 15.5656C150.866 14.4884 150.248 14.219 150.248 14.219C149.397 13.6419 150.325 13.6419 150.325 13.6419C151.253 13.7189 151.755 14.6038 151.755 14.6038C152.567 16.0273 153.92 15.6041 154.461 15.3733C154.539 14.7577 154.771 14.3729 155.041 14.1421C152.992 13.9112 150.827 13.1033 150.827 9.56368C150.827 8.56336 151.175 7.71693 151.794 7.10134C151.717 6.8705 151.369 5.94712 151.871 4.63901C151.871 4.63901 152.644 4.40816 154.423 5.60086C155.157 5.40849 155.969 5.29306 156.742 5.29306C157.515 5.29306 158.327 5.40849 159.062 5.60086C160.84 4.40816 161.613 4.63901 161.613 4.63901C162.116 5.90865 161.806 6.83203 161.69 7.10134C162.27 7.7554 162.657 8.56336 162.657 9.56368C162.657 13.1033 160.492 13.8728 158.405 14.1036C158.752 14.3729 159.023 14.95 159.023 15.7965C159.023 17.0276 159.023 18.028 159.023 18.3358C159.023 18.5666 159.178 18.8744 159.68 18.7974C163.353 17.6048 166.02 14.1421 166.02 10.0638C166.02 4.9468 161.884 0.830078 156.742 0.830078Z" fill="#7C310B"/>
</svg>
