<svg width="20" height="21" viewBox="0 0 20 21" fill="none" xmlns="http://www.w3.org/2000/svg">
<path d="M12.1134 18.4413C12.145 18.5202 12.2001 18.5875 12.2711 18.6342C12.3421 18.6809 12.4258 18.7048 12.5107 18.7026C12.5957 18.7005 12.678 18.6723 12.7466 18.622C12.8151 18.5717 12.8666 18.5017 12.8942 18.4213L18.3109 2.58793C18.3375 2.51409 18.3426 2.43418 18.3255 2.35756C18.3085 2.28093 18.2699 2.21076 18.2144 2.15524C18.1589 2.09973 18.0887 2.06117 18.0121 2.04409C17.9355 2.027 17.8555 2.03209 17.7817 2.05876L1.94837 7.47543C1.86795 7.50301 1.7979 7.55453 1.7476 7.62307C1.69731 7.69161 1.66918 7.7739 1.66701 7.85889C1.66483 7.94388 1.6887 8.0275 1.73542 8.09853C1.78214 8.16956 1.84947 8.2246 1.92837 8.25626L8.53671 10.9063C8.74561 10.9899 8.93542 11.115 9.09468 11.274C9.25394 11.4329 9.37936 11.6225 9.46337 11.8313L12.1134 18.4413Z" stroke="white" stroke-width="1.5" stroke-linecap="round" stroke-linejoin="round"/>
<path d="M18.2116 2.1582L9.09497 11.274" stroke="white" stroke-width="1.5" stroke-linecap="round" stroke-linejoin="round"/>
</svg>
